<svg width="90" height="28" viewBox="0 0 90 28" fill="none" xmlns="http://www.w3.org/2000/svg">
<path d="M25.7995 19.8442C25.6583 19.503 25.5259 19.1442 25.3848 18.838L24.7318 17.3767L24.7054 17.3505C22.7642 13.1505 20.6907 8.88047 18.4936 4.68047L18.4054 4.50547C18.1848 4.09422 17.9642 3.63922 17.7348 3.21922C17.4524 2.72047 17.1789 2.18672 16.7289 1.67922C16.2902 1.14821 15.7382 0.720384 15.1126 0.426617C14.487 0.13285 13.8034 -0.0195312 13.1112 -0.0195312C12.419 -0.0195312 11.7355 0.13285 11.1099 0.426617C10.4843 0.720384 9.93223 1.14821 9.49359 1.67922C9.07889 2.18672 8.77006 2.72047 8.48771 3.21922C8.26712 3.67422 8.04653 4.12047 7.81712 4.53172L7.72889 4.70672C5.56712 8.90672 3.4583 13.1767 1.51712 17.3767L1.46418 17.4292C1.27006 17.8842 1.04065 18.3567 0.820064 18.8642C0.678887 19.1705 0.537711 19.503 0.396534 19.8705C0.0153867 20.8328 -0.106326 21.877 0.0433922 22.9001C0.19311 23.9233 0.609091 24.8901 1.25034 25.7053C1.89159 26.5205 2.73597 27.1559 3.70026 27.549C4.66456 27.942 5.71549 28.0791 6.74948 27.9467C7.74077 27.8173 8.69531 27.4899 9.55536 26.9842C10.7024 26.3455 11.8054 25.418 13.0407 24.0792C14.2759 25.418 15.4054 26.3455 16.5259 26.993C17.6036 27.6202 18.8239 27.9664 20.073 27.9992C21.5195 28.0052 22.9193 27.492 24.014 26.5543C25.1087 25.6167 25.8244 24.318 26.0289 22.898C26.2652 21.8775 26.1853 20.8101 25.7995 19.8355V19.8442ZM13.1289 21.2967C11.6112 19.3717 10.623 17.6042 10.2877 16.0905C10.1488 15.5295 10.1189 14.9475 10.1995 14.3755C10.2612 13.9292 10.4289 13.5355 10.6583 13.203C11.1877 12.4417 12.1142 11.9692 13.1289 11.9692C13.6108 11.9546 14.0888 12.0589 14.52 12.2727C14.9512 12.4865 15.3221 12.8032 15.5995 13.1942C15.8289 13.5442 15.9965 13.9292 16.0495 14.3755C16.1377 14.883 16.1024 15.4692 15.9612 16.0905C15.6259 17.578 14.6377 19.363 13.1289 21.2967ZM24.3701 22.5917C24.2698 23.3127 23.9808 23.995 23.5319 24.5707C23.0829 25.1464 22.4897 25.5954 21.8112 25.873C21.1407 26.153 20.3995 26.2317 19.6759 26.153C18.9701 26.0655 18.2642 25.838 17.5407 25.418C16.3393 24.6817 15.2591 23.7668 14.3377 22.7055C16.1907 20.4305 17.3112 18.3567 17.7348 16.5105C17.9377 15.6355 17.9642 14.848 17.8759 14.1217C17.7658 13.4333 17.5069 12.7767 17.1171 12.1967C16.6721 11.5678 16.078 11.057 15.3872 10.7091C14.6964 10.3613 13.93 10.187 13.1554 10.2017C11.523 10.2017 10.0671 10.9542 9.18477 12.188C8.78757 12.7665 8.53086 13.4284 8.43477 14.1217C8.32006 14.8567 8.34653 15.6705 8.57595 16.5105C8.99948 18.3567 10.1465 20.4567 11.973 22.723C11.0673 23.8046 9.9845 24.7275 8.77006 25.453C8.03771 25.873 7.34065 26.0917 6.63477 26.1792C5.53702 26.3187 4.42814 26.0228 3.54915 25.3559C2.67016 24.6891 2.09211 23.7051 1.94065 22.618C1.85242 21.918 1.91418 21.218 2.19653 20.4305C2.28477 20.1505 2.41712 19.8705 2.5583 19.538C2.75242 19.083 2.98183 18.6105 3.20242 18.138L3.23771 18.0767C5.14359 13.903 7.22595 9.64172 9.38771 5.46797L9.47595 5.29297C9.69653 4.87297 9.91712 4.42672 10.1465 4.00672C10.3759 3.56047 10.623 3.13172 10.9407 2.78172C11.2156 2.45624 11.5592 2.19448 11.9471 2.01488C12.3351 1.83528 12.7581 1.74221 13.1862 1.74221C13.6144 1.74221 14.0374 1.83528 14.4253 2.01488C14.8133 2.19448 15.1569 2.45624 15.4318 2.78172C15.7407 3.13172 15.9965 3.56047 16.2259 4.00672C16.4465 4.42672 16.6671 4.88172 16.8965 5.29297L16.9848 5.46797C19.1377 9.64172 21.2201 13.903 23.1612 18.0767L23.1877 18.103C23.4171 18.558 23.6112 19.0655 23.8318 19.503C23.973 19.8442 24.1142 20.1155 24.2024 20.4042C24.3701 21.1917 24.4583 21.8917 24.3701 22.5917ZM36.6524 21.1042C35.9875 21.1139 35.329 20.9749 34.7256 20.6977C34.1223 20.4205 33.5896 20.0122 33.1671 19.503C32.2178 18.4179 31.7139 17.0189 31.7554 15.583C31.7408 14.1158 32.2609 12.6927 33.2201 11.5755C33.6637 11.0598 34.216 10.6468 34.838 10.3656C35.4599 10.0844 36.1365 9.94184 36.8201 9.94797C37.4632 9.93051 38.1003 10.0755 38.6714 10.3694C39.2425 10.6633 39.7289 11.0964 40.0848 11.628L40.173 10.2542H42.7495V20.8242H40.1642L40.0759 19.2842C39.709 19.8518 39.2019 20.3169 38.6027 20.6355C38.0035 20.954 37.3322 21.1154 36.6524 21.1042ZM37.323 18.5842C37.8348 18.5842 38.2848 18.4442 38.7083 18.1905C39.0965 17.9105 39.4142 17.543 39.6612 17.0967C39.8818 16.6505 39.9965 16.1167 39.9965 15.5217C40.0309 15.0049 39.9295 14.4882 39.7021 14.0219C39.4748 13.5556 39.1293 13.1559 38.6995 12.8617C38.2865 12.6065 37.8096 12.4713 37.323 12.4713C36.8364 12.4713 36.3595 12.6065 35.9465 12.8617C35.5583 13.1417 35.2407 13.5092 34.9936 13.9555C34.7603 14.4476 34.6455 14.9868 34.6583 15.5305C34.6239 16.0472 34.7253 16.564 34.9527 17.0303C35.18 17.4965 35.5255 17.8963 35.9554 18.1905C36.3701 18.4442 36.8201 18.5842 37.323 18.5842ZM47.1612 7.40172C47.1612 7.70797 47.1083 7.98797 46.9671 8.21547C46.8259 8.43422 46.6318 8.63547 46.3759 8.77547C46.1201 8.91547 45.8465 8.96797 45.5642 8.96797C45.2818 8.96797 44.9995 8.91547 44.7436 8.77547C44.5016 8.64187 44.2981 8.44909 44.1524 8.21547C44.0158 7.96621 43.9487 7.68527 43.9583 7.40172C43.9583 7.08672 44.0201 6.80672 44.1524 6.58797C44.2936 6.32547 44.4965 6.16797 44.7436 6.02797C44.9995 5.88797 45.273 5.82672 45.5642 5.82672C45.845 5.8203 46.1228 5.88627 46.3702 6.01816C46.6177 6.15006 46.8264 6.34338 46.9759 6.57922C47.1044 6.83432 47.168 7.11668 47.1612 7.40172ZM44.1612 20.7892V10.2367H46.9671V20.8067H44.1524L44.1612 20.7892ZM54.4671 13.0017V13.0367C54.3348 12.9755 54.1583 12.9492 54.0259 12.923C53.8495 12.888 53.7083 12.888 53.5406 12.888C52.7554 12.888 52.1642 13.1155 51.7759 13.588C51.3524 14.0692 51.1583 14.743 51.1583 15.6092V20.798H48.3436V10.228H50.9289L51.0171 11.8292C51.2995 11.2692 51.6348 10.8492 52.1112 10.5342C52.5852 10.2282 53.1431 10.0753 53.7083 10.0967C53.9112 10.0967 54.1054 10.1142 54.273 10.1492C54.3612 10.1755 54.4142 10.1755 54.4671 10.2017V13.0017ZM55.5965 20.7892V5.89672H58.4024V11.5842C58.7995 11.0767 59.2495 10.683 59.8142 10.3767C60.7082 9.94205 61.7238 9.81875 62.6971 10.0267C63.6704 10.2347 64.5447 10.7618 65.1789 11.523C66.1303 12.6102 66.6343 14.0128 66.5907 15.4517C66.6052 16.9189 66.0851 18.342 65.1259 19.4592C64.6823 19.9749 64.13 20.3879 63.5081 20.6691C62.8861 20.9503 62.2095 21.0928 61.5259 21.0867C60.8828 21.1042 60.2457 20.9591 59.6746 20.6653C59.1035 20.3714 58.6171 19.9383 58.2612 19.4067L58.173 20.7805L55.5965 20.8067V20.7892ZM61.023 18.5842C61.5259 18.5842 61.9759 18.4442 62.3995 18.1905C62.7877 17.9105 63.1054 17.543 63.3524 17.0967C63.5818 16.6505 63.6877 16.1167 63.6877 15.5217C63.6877 14.9355 63.5818 14.4017 63.3524 13.9555C63.1207 13.5252 62.7952 13.1515 62.3995 12.8617C61.9865 12.6065 61.5096 12.4713 61.023 12.4713C60.5364 12.4713 60.0595 12.6065 59.6465 12.8617C59.2495 13.1417 58.9407 13.5092 58.6848 13.9555C58.4514 14.4476 58.3366 14.9868 58.3495 15.5305C58.3151 16.0472 58.4165 16.564 58.6439 17.0303C58.8712 17.4965 59.2167 17.8963 59.6465 18.1905C60.0612 18.4442 60.5112 18.5842 61.023 18.5842ZM67.6495 20.798V10.228H70.2348L70.323 11.6017C70.6479 11.0751 71.1087 10.6442 71.6579 10.3534C72.207 10.0627 72.8245 9.9227 73.4465 9.94797C74.1578 9.93579 74.8569 10.1318 75.4564 10.5116C76.0559 10.8913 76.5292 11.4379 76.8171 12.083C77.1259 12.748 77.2936 13.5705 77.2936 14.4892V20.8242H74.4789V14.8567C74.4789 14.1217 74.3112 13.5442 73.9759 13.1155C73.6406 12.6955 73.1818 12.468 72.5995 12.468C72.1759 12.468 71.8054 12.5555 71.4789 12.748C71.1701 12.9492 70.9142 13.203 70.7201 13.5617C70.5238 13.9244 70.4265 14.3316 70.4377 14.743V20.798H67.6495ZM78.6965 20.798V5.88797H81.5112V11.5755C81.8925 11.0651 82.3884 10.65 82.9597 10.3629C83.5311 10.0758 84.162 9.92477 84.8024 9.92172C85.4673 9.91207 86.1258 10.051 86.7292 10.3282C87.3326 10.6054 87.8652 11.0138 88.2877 11.523C89.2324 12.6102 89.7328 14.0085 89.6907 15.443C89.706 16.9103 89.1858 18.3336 88.2259 19.4505C87.7823 19.9662 87.23 20.3792 86.608 20.6604C85.9861 20.9415 85.3095 21.0841 84.6259 21.078C83.9828 21.0954 83.3457 20.9504 82.7746 20.6565C82.2035 20.3626 81.7171 19.9295 81.3612 19.398L81.2818 20.7717L78.6965 20.798ZM84.1495 18.5842C84.6612 18.5842 85.1112 18.4442 85.5259 18.1905C85.923 17.9105 86.2318 17.543 86.4877 17.0967C86.7083 16.6505 86.823 16.1167 86.823 15.5217C86.8574 15.0049 86.756 14.4882 86.5286 14.0219C86.3013 13.5556 85.9558 13.1559 85.5259 12.8617C85.1129 12.6065 84.6361 12.4713 84.1495 12.4713C83.6629 12.4713 83.186 12.6065 82.773 12.8617C82.3848 13.1417 82.0671 13.5092 81.8201 13.9555C81.5738 14.4432 81.4583 14.9856 81.4848 15.5305C81.4504 16.0472 81.5518 16.564 81.7792 17.0303C82.0065 17.4965 82.352 17.8963 82.7818 18.1905C83.1965 18.4442 83.6201 18.5842 84.1495 18.5842Z" fill="white"/>
</svg>
