<svg width="66" height="66" viewBox="0 0 66 66" fill="none" xmlns="http://www.w3.org/2000/svg">
<rect x="50.9468" width="53" height="53" rx="26.5" transform="rotate(74 50.9468 0)" fill="#FFB600"/>
<path d="M36.9931 49.6466C27.968 52.2345 18.5537 47.0161 15.9658 37.9909C13.3779 28.9658 18.5963 19.5516 27.6214 16.9637C36.6466 14.3758 46.0608 19.5941 48.6487 28.6193C51.2366 37.6444 46.0182 47.0586 36.9931 49.6466ZM28.9555 21.6161C22.4998 23.4672 18.7671 30.2012 20.6182 36.6569C22.4694 43.1126 29.2034 46.8453 35.6591 44.9942C42.1147 43.143 45.8475 36.409 43.9963 29.9533C42.1452 23.4977 35.4112 19.7649 28.9555 21.6161Z" fill="#18191F"/>
</svg>
