<svg width="80" height="24" viewBox="0 0 80 24" fill="none" xmlns="http://www.w3.org/2000/svg">
<path d="M57.1189 20.3965L62.9638 13.923L57.1189 7.44849H63.2859L66.1808 10.5934L68.9684 7.44849H74.9202L69.1031 13.8962L75.0001 20.3965H68.8078L65.9391 17.2258L63.0976 20.3965H57.1189Z" fill="white"/>
<path d="M57.1189 4.5461H50.4991V7.44858H57.1189V11.8229H50.4991V15.8379H57.1189V20.3966H45.6335V0H57.1189V4.5461Z" fill="white"/>
<path d="M40.7885 0V8.34728H40.7352C39.6626 7.13199 38.3224 6.70967 36.7674 6.70967C33.5821 6.70967 31.1827 8.8441 30.3405 11.6661C29.38 8.55664 26.9029 6.65139 23.2298 6.65139C20.2468 6.65139 17.8913 7.97122 16.6621 10.1219V7.44888H10.4963V4.5467H17.2249V0H5V20.3969H10.4963V11.8229H15.9746C15.8113 12.4527 15.7241 13.1271 15.7241 13.8386C15.7241 18.0934 19.0215 21.0788 23.2298 21.0788C26.7685 21.0788 29.1006 19.4412 30.3341 16.4555H25.624C24.9868 17.3524 24.5035 17.6188 23.2298 17.6188C21.7528 17.6188 20.4793 16.3485 20.4793 14.8428H30.0702C30.4861 18.2223 33.1567 21.1367 36.8216 21.1367C38.4025 21.1367 39.85 20.3702 40.7352 19.0759H40.7885V20.3963H45.6336V0H40.7885ZM20.6323 11.8838C20.9379 10.5883 21.9572 9.7416 23.2298 9.7416C24.6306 9.7416 25.5981 10.5622 25.8525 11.8838C25.9598 11.8838 20.6323 11.8838 20.6323 11.8838ZM37.8483 17.2911C36.0623 17.2911 34.9525 15.6508 34.9525 13.9381C34.9525 12.1073 35.9178 10.3468 37.8483 10.3468C39.85 10.3468 40.6474 12.1073 40.6474 13.9381C40.6471 15.6742 39.8021 17.2911 37.8483 17.2911Z" fill="white"/>
</svg>
