<svg width="84" height="28" viewBox="0 0 84 28" fill="none" xmlns="http://www.w3.org/2000/svg">
<path d="M35.7463 14.3591C35.7463 18.2456 32.6612 21.1095 28.875 21.1095C25.0888 21.1095 22.0037 18.2456 22.0037 14.3591C22.0037 10.4452 25.0888 7.60864 28.875 7.60864C32.6612 7.60864 35.7463 10.4452 35.7463 14.3591ZM32.7384 14.3591C32.7384 11.9304 30.9503 10.2686 28.875 10.2686C26.7997 10.2686 25.0116 11.9304 25.0116 14.3591C25.0116 16.7634 26.7997 18.4495 28.875 18.4495C30.9503 18.4495 32.7384 16.7604 32.7384 14.3591Z" fill="white"/>
<path d="M50.5698 14.3591C50.5698 18.2456 47.4846 21.1095 43.6985 21.1095C39.9123 21.1095 36.8271 18.2456 36.8271 14.3591C36.8271 10.4482 39.9123 7.60864 43.6985 7.60864C47.4846 7.60864 50.5698 10.4452 50.5698 14.3591ZM47.5619 14.3591C47.5619 11.9304 45.7738 10.2686 43.6985 10.2686C41.6232 10.2686 39.8351 11.9304 39.8351 14.3591C39.8351 16.7634 41.6232 18.4495 43.6985 18.4495C45.7738 18.4495 47.5619 16.7604 47.5619 14.3591Z" fill="white"/>
<path d="M64.7757 8.01647V20.1356C64.7757 25.1208 61.7925 27.1569 58.2657 27.1569C54.9459 27.1569 52.9478 24.9686 52.1942 23.1791L54.8131 22.1047C55.2794 23.2034 56.422 24.4999 58.2626 24.4999C60.5201 24.4999 61.9191 23.1273 61.9191 20.5434V19.5726H61.8141C61.1409 20.3912 59.8438 21.1065 58.207 21.1065C54.7822 21.1065 51.6445 18.1665 51.6445 14.3834C51.6445 10.573 54.7822 7.60864 58.207 7.60864C59.8407 7.60864 61.1378 8.32386 61.8141 9.11821H61.9191V8.01951H64.7757V8.01647ZM62.1322 14.3834C62.1322 12.0065 60.5232 10.2686 58.4757 10.2686C56.4004 10.2686 54.6617 12.0065 54.6617 14.3834C54.6617 16.736 56.4004 18.4495 58.4757 18.4495C60.5232 18.4495 62.1322 16.736 62.1322 14.3834Z" fill="white"/>
<path d="M69.4853 0.913086V20.6957H66.5515V0.913086H69.4853Z" fill="white"/>
<path d="M80.9181 16.5809L83.2528 18.1148C82.4993 19.2135 80.6834 21.1066 77.5457 21.1066C73.6546 21.1066 70.7485 18.1422 70.7485 14.3561C70.7485 10.3418 73.6793 7.60571 77.2091 7.60571C80.7637 7.60571 82.5024 10.3935 83.0706 11.9001L83.3825 12.667L74.2259 16.4044C74.9269 17.7588 76.0171 18.4496 77.5457 18.4496C79.0775 18.4496 80.1399 17.707 80.9181 16.5809ZM73.7318 14.1522L79.8527 11.6475C79.516 10.8044 78.5031 10.217 77.311 10.217C75.7824 10.217 73.6546 11.547 73.7318 14.1522Z" fill="white"/>
<path d="M10.8985 12.6031V9.73915H20.6913C20.7871 10.2383 20.8365 10.8287 20.8365 11.4678C20.8365 13.6165 20.2404 16.2735 18.3196 18.1665C16.4512 20.0839 14.064 21.1065 10.9016 21.1065C5.04015 21.1065 0.111328 16.4013 0.111328 10.6248C0.111328 4.84828 5.04015 0.143066 10.9016 0.143066C14.1443 0.143066 16.4543 1.39698 18.1899 3.03133L16.1393 5.0522C14.8947 3.90176 13.2085 3.00698 10.8985 3.00698C6.61824 3.00698 3.27059 6.40654 3.27059 10.6248C3.27059 14.8431 6.61824 18.2426 10.8985 18.2426C13.6749 18.2426 15.256 17.1439 16.269 16.1457C17.0904 15.3361 17.6309 14.1796 17.844 12.6L10.8985 12.6031Z" fill="white"/>
</svg>
