<svg width="84" height="24" viewBox="0 0 84 24" fill="none" xmlns="http://www.w3.org/2000/svg">
<path d="M9.09675 3.97266V10.7424H2.92846V3.97266H0V20.1327H2.92846V13.5828H9.09675V20.1327H12.0252V3.97266H9.09675Z" fill="white"/>
<path d="M21.3974 14.9089C21.3974 15.5566 21.1421 16.1777 20.6878 16.6356C20.2334 17.0936 19.6172 17.3508 18.9747 17.3508C18.3321 17.3508 17.7159 17.0936 17.2616 16.6356C16.8072 16.1777 16.552 15.5566 16.552 14.9089V7.9873H13.7742V14.9089C13.7742 16.2978 14.3215 17.6298 15.2959 18.6119C16.2702 19.5939 17.5917 20.1457 18.9696 20.1457C20.3476 20.1457 21.6691 19.5939 22.6434 18.6119C23.6177 17.6298 24.1651 16.2978 24.1651 14.9089V7.9873H21.3974V14.9089Z" fill="white"/>
<path d="M41.9787 8.70035C41.9787 7.28161 42.9099 6.83183 43.9301 6.83183C44.7522 6.83183 45.8384 7.46238 46.5486 8.22743L48.368 6.06678C47.4597 4.82882 45.6174 3.97266 44.1094 3.97266C41.0963 3.97266 38.9168 5.75151 38.9168 8.70035C38.9168 14.1714 45.5514 12.4359 45.5514 15.4976C45.5514 16.442 44.6417 17.2764 43.6001 17.2764C41.9572 17.2764 41.4249 16.4665 40.6702 15.6104L38.6514 17.7262C39.9427 19.3243 41.5354 20.1356 43.4437 20.1356C46.3061 20.1356 48.609 18.3351 48.609 15.5207C48.609 9.44659 41.9744 11.3339 41.9744 8.70035" fill="white"/>
<path d="M83.0229 17.5512C81.3815 17.5512 80.9152 16.8353 80.9152 15.7391V10.887H83.4663V8.42844H80.9152V5.18457L78.0986 6.45869V16.3421C78.0986 18.8701 79.829 20.1443 82.2022 20.1443C82.5744 20.1511 82.9464 20.1211 83.3128 20.0546L84 17.5049C83.6901 17.5266 83.3343 17.5483 83.0229 17.5483" fill="white"/>
<path d="M31.9706 8.06837C30.5947 8.06837 29.6348 8.47042 28.7064 9.38877V4.06958H25.9243V13.9285C25.9243 17.6192 28.5716 20.1472 31.5459 20.1472C34.846 20.1472 37.7487 17.5744 37.7487 14.1092C37.7487 10.6875 35.077 8.06982 31.9706 8.06982V8.06837ZM31.9534 17.3256C31.3291 17.3256 30.7188 17.139 30.1997 16.7894C29.6806 16.4398 29.276 15.9429 29.0371 15.3615C28.7982 14.7801 28.7357 14.1404 28.8575 13.5232C28.9793 12.906 29.2799 12.3391 29.7214 11.8942C30.1628 11.4492 30.7253 11.1462 31.3376 11.0234C31.9499 10.9006 32.5846 10.9636 33.1614 11.2044C33.7382 11.4453 34.2312 11.8531 34.578 12.3763C34.9249 12.8995 35.11 13.5147 35.11 14.1439C35.11 14.9878 34.7775 15.797 34.1855 16.3937C33.5935 16.9904 32.7906 17.3256 31.9534 17.3256Z" fill="white"/>
<path d="M62.1793 13.9618C62.1793 10.4909 59.2824 7.92383 55.9766 7.92383C53.0022 7.92383 50.355 10.4518 50.355 14.1426V24.0072H53.1371V18.6808C54.064 19.5977 55.0253 20.0012 56.3999 20.0012C59.5062 20.0012 62.1779 17.385 62.1779 13.9618H62.1793ZM59.545 13.9271C59.545 14.5564 59.3599 15.1715 59.013 15.6947C58.6661 16.2179 58.1732 16.6258 57.5964 16.8666C57.0196 17.1074 56.3849 17.1704 55.7726 17.0476C55.1602 16.9249 54.5978 16.6218 54.1563 16.1769C53.7149 15.7319 53.4142 15.165 53.2924 14.5478C53.1706 13.9306 53.2332 13.2909 53.4721 12.7095C53.711 12.1281 54.1156 11.6312 54.6347 11.2816C55.1538 10.932 55.7641 10.7454 56.3884 10.7454C57.2256 10.7454 58.0285 11.0806 58.6204 11.6773C59.2124 12.274 59.545 13.0832 59.545 13.9271Z" fill="white"/>
<path d="M71.1671 7.78787V4.97063C71.5365 4.79667 71.8492 4.52054 72.069 4.17438C72.2887 3.82823 72.4063 3.42628 72.4082 3.01535V2.95027C72.4082 2.37493 72.1815 1.82315 71.7779 1.41632C71.3742 1.00949 70.8268 0.780939 70.256 0.780939H70.1914C69.6206 0.780939 69.0732 1.00949 68.6696 1.41632C68.266 1.82315 68.0392 2.37493 68.0392 2.95027V3.01535C68.0411 3.42628 68.1588 3.82823 68.3785 4.17438C68.5982 4.52054 68.911 4.79667 69.2803 4.97063V7.78787C68.2187 7.95157 67.2189 8.3951 66.382 9.07356L58.7172 3.05584C58.7715 2.8574 58.8004 2.6528 58.8033 2.44698C58.8041 1.96352 58.6627 1.49067 58.3969 1.08823C58.1311 0.685791 57.7529 0.371847 57.31 0.186108C56.8672 0.000369021 56.3797 -0.0488204 55.9091 0.0447614C55.4385 0.138343 55.006 0.370492 54.6664 0.711844C54.3267 1.0532 54.0951 1.48842 54.0009 1.96245C53.9066 2.43649 53.954 2.92805 54.137 3.37496C54.3199 3.82186 54.6303 4.20404 55.0288 4.47314C55.4272 4.74224 55.8959 4.88618 56.3756 4.88675C56.795 4.88486 57.2066 4.77217 57.5694 4.55991L65.1179 10.4793C64.4397 11.5118 64.0858 12.7264 64.1024 13.9647C64.119 15.203 64.5054 16.4075 65.2112 17.4211L62.9155 19.7351C62.7298 19.6753 62.5364 19.6436 62.3416 19.6411C61.9478 19.6414 61.5629 19.7593 61.2357 19.98C60.9084 20.2007 60.6533 20.5142 60.5028 20.8809C60.3522 21.2477 60.3129 21.6511 60.3898 22.0404C60.4667 22.4296 60.6563 22.7872 60.9348 23.0678C61.2132 23.3485 61.5679 23.5396 61.9541 23.6171C62.3403 23.6946 62.7406 23.655 63.1045 23.5033C63.4683 23.3515 63.7793 23.0944 63.9983 22.7646C64.2172 22.4347 64.3342 22.0468 64.3345 21.6499C64.3321 21.4534 64.3006 21.2585 64.2413 21.0714L66.5126 18.782C67.2532 19.3565 68.1144 19.7525 69.0303 19.9397C69.9462 20.1268 70.8925 20.1003 71.7966 19.8619C72.7007 19.6236 73.5388 19.1799 74.2465 18.5647C74.9542 17.9495 75.5129 17.1793 75.8797 16.3129C76.2464 15.4465 76.4116 14.507 76.3626 13.5664C76.3136 12.6257 76.0516 11.7088 75.5967 10.886C75.1418 10.0631 74.5062 9.35614 73.7384 8.81913C72.9706 8.28212 72.091 7.92936 71.1671 7.78787ZM70.2259 17.0523C69.6046 17.0518 68.9974 16.8656 68.4811 16.5173C67.9647 16.169 67.5624 15.6742 67.325 15.0955C67.0876 14.5168 67.0257 13.8801 67.1471 13.266C67.2686 12.6518 67.5679 12.0878 68.0073 11.6451C68.4468 11.2023 69.0065 10.9009 69.6159 10.7787C70.2253 10.6566 70.8569 10.7193 71.4309 10.9589C72.0049 11.1984 72.4956 11.6042 72.8409 12.1248C73.1863 12.6454 73.3707 13.2574 73.371 13.8837C73.371 14.7237 73.0399 15.5293 72.4507 16.1232C71.8614 16.7172 71.0621 17.0509 70.2287 17.0509" fill="white"/>
</svg>
