<svg width="167" height="45" viewBox="0 0 167 45" fill="none" xmlns="http://www.w3.org/2000/svg">
<rect width="45" height="45" rx="15" transform="matrix(1 0 0 -1 0 45)" fill="#18191F"/>
<path d="M23.5 23V14H14.25C14.25 18.968 18.394 23 23.5 23Z" fill="white"/>
<path d="M23.5 41V32H14.25C14.25 36.968 18.394 41 23.5 41Z" fill="white"/>
<path d="M23.5 32.0001V23.0001H32.75C32.75 27.9681 28.606 32.0001 23.5 32.0001Z" fill="white"/>
<path d="M23.5 14V5.00001H32.75C32.75 9.968 28.606 14 23.5 14Z" fill="#FFB600"/>
<path d="M32.75 23V14C27.644 14 23.5 18.032 23.5 23H32.75Z" fill="#FFB600"/>
<path d="M23.5 14V5.00001C18.394 5.00001 14.25 9.032 14.25 14H23.5Z" fill="#FE5E33"/>
<path d="M14.25 23V14C9.144 14 5 18.032 5 23H14.25Z" fill="#FFB600"/>
<path d="M14.25 32.0001V23.0001C19.356 23.0001 23.5 27.0321 23.5 32.0001H14.25Z" fill="#FFB600"/>
<path d="M32.75 23C37.856 23 42 18.968 42 14H32.75V23Z" fill="#FE5E33"/>
<path d="M63.4102 27.2148V29.5H56.252V27.2148H63.4102ZM57.1992 15.2812V29.5H54.2695V15.2812H57.1992ZM69.7773 29.6953C68.957 29.6953 68.2214 29.5651 67.5703 29.3047C66.9193 29.0378 66.3659 28.6699 65.9102 28.2012C65.4609 27.7324 65.1159 27.1888 64.875 26.5703C64.6341 25.9453 64.5137 25.2812 64.5137 24.5781V24.1875C64.5137 23.3867 64.6276 22.6543 64.8555 21.9902C65.0833 21.3262 65.4089 20.75 65.832 20.2617C66.2617 19.7734 66.7826 19.3991 67.3945 19.1387C68.0065 18.8717 68.6966 18.7383 69.4648 18.7383C70.2135 18.7383 70.8776 18.862 71.457 19.1094C72.0365 19.3568 72.5215 19.7083 72.9121 20.1641C73.3092 20.6198 73.6087 21.1667 73.8105 21.8047C74.0124 22.4362 74.1133 23.1393 74.1133 23.9141V25.0859H65.7148V23.2109H71.3496V22.9961C71.3496 22.6055 71.278 22.2572 71.1348 21.9512C70.998 21.6387 70.7897 21.3913 70.5098 21.209C70.2298 21.0267 69.8717 20.9355 69.4355 20.9355C69.0645 20.9355 68.7454 21.0169 68.4785 21.1797C68.2116 21.3424 67.9935 21.5703 67.8242 21.8633C67.6615 22.1562 67.5378 22.5013 67.4531 22.8984C67.375 23.2891 67.3359 23.7188 67.3359 24.1875V24.5781C67.3359 25.0013 67.3945 25.3919 67.5117 25.75C67.6354 26.1081 67.8079 26.4173 68.0293 26.6777C68.2572 26.9382 68.5306 27.14 68.8496 27.2832C69.1751 27.4264 69.543 27.498 69.9531 27.498C70.4609 27.498 70.9329 27.4004 71.3691 27.2051C71.8118 27.0033 72.1927 26.7005 72.5117 26.2969L73.8789 27.7812C73.6576 28.1003 73.3548 28.4062 72.9707 28.6992C72.5931 28.9922 72.1374 29.2331 71.6035 29.4219C71.0697 29.6042 70.4609 29.6953 69.7773 29.6953ZM80.2559 29.5H77.1602L77.1797 27.2148H80.2559C81.0241 27.2148 81.6719 27.0423 82.1992 26.6973C82.7266 26.3457 83.1237 25.8346 83.3906 25.1641C83.6641 24.4935 83.8008 23.6829 83.8008 22.7324V22.0391C83.8008 21.3099 83.7227 20.6686 83.5664 20.1152C83.4167 19.5618 83.1921 19.0964 82.8926 18.7188C82.5931 18.3411 82.2253 18.0579 81.7891 17.8691C81.3529 17.6738 80.8516 17.5762 80.2852 17.5762H77.1016V15.2812H80.2852C81.2357 15.2812 82.1048 15.444 82.8926 15.7695C83.6868 16.0885 84.3737 16.5475 84.9531 17.1465C85.5326 17.7454 85.9785 18.4616 86.291 19.2949C86.61 20.1217 86.7695 21.043 86.7695 22.0586V22.7324C86.7695 23.7415 86.61 24.6628 86.291 25.4961C85.9785 26.3294 85.5326 27.0456 84.9531 27.6445C84.3802 28.237 83.6934 28.696 82.8926 29.0215C82.0983 29.3405 81.2194 29.5 80.2559 29.5ZM78.8203 15.2812V29.5H75.8906V15.2812H78.8203ZM93.5859 29.6953C92.7656 29.6953 92.0299 29.5651 91.3789 29.3047C90.7279 29.0378 90.1745 28.6699 89.7188 28.2012C89.2695 27.7324 88.9245 27.1888 88.6836 26.5703C88.4427 25.9453 88.3223 25.2812 88.3223 24.5781V24.1875C88.3223 23.3867 88.4362 22.6543 88.6641 21.9902C88.8919 21.3262 89.2174 20.75 89.6406 20.2617C90.0703 19.7734 90.5911 19.3991 91.2031 19.1387C91.8151 18.8717 92.5052 18.7383 93.2734 18.7383C94.0221 18.7383 94.6862 18.862 95.2656 19.1094C95.8451 19.3568 96.3301 19.7083 96.7207 20.1641C97.1178 20.6198 97.4173 21.1667 97.6191 21.8047C97.821 22.4362 97.9219 23.1393 97.9219 23.9141V25.0859H89.5234V23.2109H95.1582V22.9961C95.1582 22.6055 95.0866 22.2572 94.9434 21.9512C94.8066 21.6387 94.5983 21.3913 94.3184 21.209C94.0384 21.0267 93.6803 20.9355 93.2441 20.9355C92.873 20.9355 92.554 21.0169 92.2871 21.1797C92.0202 21.3424 91.8021 21.5703 91.6328 21.8633C91.4701 22.1562 91.3464 22.5013 91.2617 22.8984C91.1836 23.2891 91.1445 23.7188 91.1445 24.1875V24.5781C91.1445 25.0013 91.2031 25.3919 91.3203 25.75C91.444 26.1081 91.6165 26.4173 91.8379 26.6777C92.0658 26.9382 92.3392 27.14 92.6582 27.2832C92.9837 27.4264 93.3516 27.498 93.7617 27.498C94.2695 27.498 94.7415 27.4004 95.1777 27.2051C95.6204 27.0033 96.0013 26.7005 96.3203 26.2969L97.6875 27.7812C97.4661 28.1003 97.1634 28.4062 96.7793 28.6992C96.4017 28.9922 95.946 29.2331 95.4121 29.4219C94.8783 29.6042 94.2695 29.6953 93.5859 29.6953ZM105.236 26.5801C105.236 26.3783 105.178 26.196 105.061 26.0332C104.943 25.8704 104.725 25.7207 104.406 25.584C104.094 25.4408 103.641 25.3105 103.049 25.1934C102.515 25.0762 102.017 24.9297 101.555 24.7539C101.099 24.5716 100.702 24.3535 100.363 24.0996C100.031 23.8457 99.7708 23.5462 99.582 23.2012C99.3932 22.8496 99.2988 22.4492 99.2988 22C99.2988 21.5573 99.3932 21.1406 99.582 20.75C99.7773 20.3594 100.054 20.0143 100.412 19.7148C100.777 19.4089 101.219 19.1712 101.74 19.002C102.268 18.8262 102.86 18.7383 103.518 18.7383C104.436 18.7383 105.223 18.8848 105.881 19.1777C106.545 19.4707 107.053 19.8743 107.404 20.3887C107.762 20.8965 107.941 21.4759 107.941 22.127H105.129C105.129 21.8535 105.07 21.6094 104.953 21.3945C104.842 21.1732 104.667 21.0007 104.426 20.877C104.191 20.7467 103.885 20.6816 103.508 20.6816C103.195 20.6816 102.925 20.737 102.697 20.8477C102.469 20.9518 102.294 21.0951 102.17 21.2773C102.053 21.4531 101.994 21.6484 101.994 21.8633C101.994 22.026 102.027 22.1725 102.092 22.3027C102.163 22.4264 102.277 22.5404 102.434 22.6445C102.59 22.7487 102.792 22.8464 103.039 22.9375C103.293 23.0221 103.605 23.1003 103.977 23.1719C104.738 23.3281 105.419 23.5332 106.018 23.7871C106.617 24.0345 107.092 24.373 107.443 24.8027C107.795 25.2259 107.971 25.7826 107.971 26.4727C107.971 26.9414 107.867 27.3711 107.658 27.7617C107.45 28.1523 107.15 28.4941 106.76 28.7871C106.369 29.0736 105.9 29.2982 105.354 29.4609C104.813 29.6172 104.204 29.6953 103.527 29.6953C102.544 29.6953 101.711 29.5195 101.027 29.168C100.35 28.8164 99.8359 28.3704 99.4844 27.8301C99.1393 27.2832 98.9668 26.7233 98.9668 26.1504H101.633C101.646 26.5345 101.743 26.8438 101.926 27.0781C102.115 27.3125 102.352 27.4818 102.639 27.5859C102.932 27.6901 103.247 27.7422 103.586 27.7422C103.951 27.7422 104.253 27.6934 104.494 27.5957C104.735 27.4915 104.917 27.3548 105.041 27.1855C105.171 27.0098 105.236 26.8079 105.236 26.5801ZM112.766 18.9336V29.5H109.943V18.9336H112.766ZM109.768 16.1797C109.768 15.7695 109.911 15.431 110.197 15.1641C110.484 14.8971 110.868 14.7637 111.35 14.7637C111.825 14.7637 112.206 14.8971 112.492 15.1641C112.785 15.431 112.932 15.7695 112.932 16.1797C112.932 16.5898 112.785 16.9284 112.492 17.1953C112.206 17.4622 111.825 17.5957 111.35 17.5957C110.868 17.5957 110.484 17.4622 110.197 17.1953C109.911 16.9284 109.768 16.5898 109.768 16.1797ZM121.779 18.9336H124.328V29.1484C124.328 30.112 124.113 30.929 123.684 31.5996C123.26 32.2767 122.668 32.7878 121.906 33.1328C121.145 33.4844 120.259 33.6602 119.25 33.6602C118.807 33.6602 118.339 33.6016 117.844 33.4844C117.355 33.3672 116.887 33.1849 116.438 32.9375C115.995 32.6901 115.624 32.3776 115.324 32L116.564 30.3398C116.89 30.7174 117.268 31.0104 117.697 31.2188C118.127 31.4336 118.602 31.541 119.123 31.541C119.631 31.541 120.061 31.4466 120.412 31.2578C120.764 31.0755 121.034 30.8053 121.223 30.4473C121.411 30.0957 121.506 29.6693 121.506 29.168V21.375L121.779 18.9336ZM114.67 24.3438V24.1387C114.67 23.3314 114.768 22.599 114.963 21.9414C115.165 21.2773 115.448 20.7077 115.812 20.2324C116.184 19.7572 116.633 19.3893 117.16 19.1289C117.688 18.8685 118.283 18.7383 118.947 18.7383C119.65 18.7383 120.24 18.8685 120.715 19.1289C121.19 19.3893 121.581 19.7604 121.887 20.2422C122.193 20.7174 122.43 21.2806 122.6 21.9316C122.775 22.5762 122.912 23.2826 123.01 24.0508V24.5C122.912 25.2357 122.766 25.9193 122.57 26.5508C122.375 27.1823 122.118 27.7357 121.799 28.2109C121.48 28.6797 121.083 29.0443 120.607 29.3047C120.139 29.5651 119.579 29.6953 118.928 29.6953C118.277 29.6953 117.688 29.5618 117.16 29.2949C116.639 29.028 116.193 28.6536 115.822 28.1719C115.451 27.6901 115.165 27.1237 114.963 26.4727C114.768 25.8216 114.67 25.112 114.67 24.3438ZM117.482 24.1387V24.3438C117.482 24.7799 117.525 25.1868 117.609 25.5645C117.694 25.9421 117.824 26.2773 118 26.5703C118.182 26.8568 118.407 27.0814 118.674 27.2441C118.947 27.4004 119.27 27.4785 119.641 27.4785C120.155 27.4785 120.575 27.3711 120.9 27.1562C121.226 26.9349 121.47 26.6322 121.633 26.248C121.796 25.8639 121.89 25.4212 121.916 24.9199V23.6406C121.903 23.2305 121.848 22.8626 121.75 22.5371C121.652 22.2051 121.516 21.9219 121.34 21.6875C121.164 21.4531 120.936 21.2708 120.656 21.1406C120.376 21.0104 120.044 20.9453 119.66 20.9453C119.289 20.9453 118.967 21.0299 118.693 21.1992C118.426 21.362 118.202 21.5866 118.02 21.873C117.844 22.1595 117.71 22.498 117.619 22.8887C117.528 23.2728 117.482 23.6895 117.482 24.1387ZM129.27 21.1895V29.5H126.457V18.9336H129.094L129.27 21.1895ZM128.859 23.8457H128.098C128.098 23.0645 128.199 22.3613 128.4 21.7363C128.602 21.1048 128.885 20.5677 129.25 20.125C129.615 19.6758 130.048 19.334 130.549 19.0996C131.057 18.8587 131.623 18.7383 132.248 18.7383C132.743 18.7383 133.195 18.8099 133.605 18.9531C134.016 19.0964 134.367 19.3242 134.66 19.6367C134.96 19.9492 135.188 20.3626 135.344 20.877C135.507 21.3913 135.588 22.0195 135.588 22.7617V29.5H132.756V22.752C132.756 22.2832 132.691 21.9186 132.561 21.6582C132.43 21.3978 132.238 21.2155 131.984 21.1113C131.737 21.0007 131.431 20.9453 131.066 20.9453C130.689 20.9453 130.36 21.0202 130.08 21.1699C129.807 21.3197 129.579 21.528 129.396 21.7949C129.221 22.0553 129.087 22.3613 128.996 22.7129C128.905 23.0645 128.859 23.4421 128.859 23.8457ZM142.59 29.6953C141.77 29.6953 141.034 29.5651 140.383 29.3047C139.732 29.0378 139.178 28.6699 138.723 28.2012C138.273 27.7324 137.928 27.1888 137.688 26.5703C137.447 25.9453 137.326 25.2812 137.326 24.5781V24.1875C137.326 23.3867 137.44 22.6543 137.668 21.9902C137.896 21.3262 138.221 20.75 138.645 20.2617C139.074 19.7734 139.595 19.3991 140.207 19.1387C140.819 18.8717 141.509 18.7383 142.277 18.7383C143.026 18.7383 143.69 18.862 144.27 19.1094C144.849 19.3568 145.334 19.7083 145.725 20.1641C146.122 20.6198 146.421 21.1667 146.623 21.8047C146.825 22.4362 146.926 23.1393 146.926 23.9141V25.0859H138.527V23.2109H144.162V22.9961C144.162 22.6055 144.09 22.2572 143.947 21.9512C143.811 21.6387 143.602 21.3913 143.322 21.209C143.042 21.0267 142.684 20.9355 142.248 20.9355C141.877 20.9355 141.558 21.0169 141.291 21.1797C141.024 21.3424 140.806 21.5703 140.637 21.8633C140.474 22.1562 140.35 22.5013 140.266 22.8984C140.188 23.2891 140.148 23.7188 140.148 24.1875V24.5781C140.148 25.0013 140.207 25.3919 140.324 25.75C140.448 26.1081 140.62 26.4173 140.842 26.6777C141.07 26.9382 141.343 27.14 141.662 27.2832C141.988 27.4264 142.355 27.498 142.766 27.498C143.273 27.498 143.745 27.4004 144.182 27.2051C144.624 27.0033 145.005 26.7005 145.324 26.2969L146.691 27.7812C146.47 28.1003 146.167 28.4062 145.783 28.6992C145.406 28.9922 144.95 29.2331 144.416 29.4219C143.882 29.6042 143.273 29.6953 142.59 29.6953ZM151.34 21.2383V29.5H148.527V18.9336H151.174L151.34 21.2383ZM154.523 18.8652L154.475 21.4727C154.338 21.4531 154.172 21.4368 153.977 21.4238C153.788 21.4043 153.615 21.3945 153.459 21.3945C153.062 21.3945 152.717 21.4466 152.424 21.5508C152.137 21.6484 151.896 21.7949 151.701 21.9902C151.512 22.1855 151.369 22.4232 151.271 22.7031C151.18 22.9831 151.128 23.3021 151.115 23.6602L150.549 23.4844C150.549 22.8008 150.617 22.1725 150.754 21.5996C150.891 21.0202 151.089 20.5156 151.35 20.0859C151.617 19.6562 151.942 19.3242 152.326 19.0898C152.71 18.8555 153.15 18.7383 153.645 18.7383C153.801 18.7383 153.96 18.7513 154.123 18.7773C154.286 18.7969 154.419 18.8262 154.523 18.8652Z" fill="white"/>
</svg>
