<svg width="74" height="74" viewBox="0 0 74 74" fill="none" xmlns="http://www.w3.org/2000/svg">
<g clip-path="url(#clip0_187_1468)">
<rect width="56" height="56" rx="15" transform="matrix(0.925272 -0.379304 -0.379304 -0.925272 21.241 73.0566)" fill="#18191F"/>
<path d="M37.9156 36.6318L33.6673 26.2688L23.0164 30.635C25.3615 36.3554 32.0363 39.042 37.9156 36.6318Z" fill="white"/>
<path d="M46.4119 57.3584L42.1637 46.9954L31.5128 51.3616C33.8578 57.082 40.5326 59.7685 46.4119 57.3584Z" fill="white"/>
<path d="M42.1638 46.9951L37.9156 36.6321L48.5665 32.2659C50.9115 37.9863 48.0431 44.585 42.1638 46.9951Z" fill="white"/>
<path d="M33.6672 26.2695L29.419 15.9065L40.0699 11.5403C42.415 17.2607 39.5465 23.8594 33.6672 26.2695Z" fill="#FFB600"/>
<path d="M48.5664 32.2656L44.3182 21.9026C38.4389 24.3127 35.5705 30.9114 37.9155 36.6318L48.5664 32.2656Z" fill="#FFB600"/>
<path d="M33.6673 26.2695L29.4191 15.9065C23.5398 18.3166 20.6713 24.9153 23.0164 30.6357L33.6673 26.2695Z" fill="#FE5E33"/>
<path d="M27.2647 40.998L23.0165 30.635C17.1372 33.0451 14.2688 39.6439 16.6138 45.3643L27.2647 40.998Z" fill="#FFB600"/>
<path d="M31.5129 51.3613L27.2647 40.9983C33.144 38.5881 39.8188 41.2747 42.1638 46.9951L31.5129 51.3613Z" fill="#FFB600"/>
<path d="M48.5664 32.2656C54.4457 29.8555 57.3141 23.2568 54.9691 17.5364L44.3182 21.9026L48.5664 32.2656Z" fill="#FE5E33"/>
</g>
<defs>
<clipPath id="clip0_187_1468">
<rect width="56" height="56" rx="15" transform="matrix(0.925272 -0.379304 -0.379304 -0.925272 21.241 73.0566)" fill="white"/>
</clipPath>
</defs>
</svg>
