<svg width="123" height="26" viewBox="0 0 123 26" fill="none" xmlns="http://www.w3.org/2000/svg">
<path d="M26.2106 14.924L25.4834 16.9798H25.4228C25.3017 16.5163 25.0795 15.8109 24.7159 14.9643L20.8175 5.18915H17V20.769H19.5248V11.155C19.5248 10.5504 19.5248 9.86512 19.5046 9.0186C19.4844 8.59535 19.444 8.27287 19.4238 8.03101H19.4844C19.6056 8.63566 19.747 9.07907 19.848 9.36124L24.5341 20.7287H26.3116L30.9573 9.26047C31.0583 8.99845 31.1593 8.47442 31.2603 8.03101H31.3209C31.2603 9.17984 31.2199 10.2078 31.1997 10.8326V20.7085H33.8861V5.14884H30.2099L26.2106 14.924ZM36.4311 9.54264H39.0569V20.7085H36.4311V9.54264ZM37.7642 4.82636C37.3199 4.82636 36.9563 4.9876 36.6533 5.26977C36.3503 5.55194 36.1887 5.91473 36.1887 6.35814C36.1887 6.7814 36.3503 7.14419 36.6533 7.42636C36.9563 7.70853 37.3199 7.84961 37.7642 7.84961C38.2086 7.84961 38.5924 7.68837 38.8752 7.42636C39.1781 7.14419 39.3397 6.7814 39.3397 6.35814C39.3397 5.93488 39.1781 5.57209 38.8752 5.26977C38.6126 4.9876 38.2288 4.82636 37.7642 4.82636ZM48.3685 9.44186C47.8838 9.34108 47.3788 9.28062 46.894 9.28062C45.7023 9.28062 44.6116 9.54264 43.7026 10.0667C42.7937 10.5907 42.0666 11.3163 41.602 12.2233C41.1172 13.1504 40.8748 14.2186 40.8748 15.4481C40.8748 16.5163 41.1172 17.4636 41.5818 18.3302C42.0464 19.1767 42.6927 19.862 43.5613 20.3256C44.3894 20.7891 45.3589 21.031 46.4497 21.031C47.702 21.031 48.7725 20.769 49.6209 20.2853L49.6411 20.2651V17.8465L49.5401 17.9271C49.1563 18.2093 48.7119 18.4512 48.2675 18.5922C47.803 18.7535 47.3788 18.8341 47.0152 18.8341C45.9649 18.8341 45.1368 18.5318 44.551 17.8667C43.945 17.2217 43.642 16.3349 43.642 15.2264C43.642 14.0775 43.945 13.1705 44.5712 12.5054C45.1973 11.8403 46.0255 11.4977 47.0354 11.4977C47.8838 11.4977 48.7523 11.7798 49.5401 12.3442L49.6411 12.4248V9.86512L49.6209 9.84496C49.2775 9.70388 48.8937 9.54264 48.3685 9.44186ZM57.0338 9.36124C56.3874 9.36124 55.7815 9.56279 55.2563 9.98605C54.8119 10.3488 54.5089 10.8729 54.2464 11.4977H54.2262V9.54264H51.6003V20.7085H54.2262V15.0047C54.2262 14.0372 54.4281 13.231 54.8725 12.6465C55.3169 12.0419 55.8824 11.7395 56.5692 11.7395C56.8116 11.7395 57.054 11.8 57.3569 11.8403C57.6397 11.9209 57.8417 12.0015 57.9831 12.1023L58.0841 12.1829V9.56279L58.0235 9.54264C57.8417 9.42171 57.4781 9.36124 57.0338 9.36124ZM64.1841 9.30078C62.346 9.30078 60.8715 9.84496 59.8414 10.9132C58.7911 11.9814 58.2861 13.4527 58.2861 15.307C58.2861 17.0403 58.8113 18.4512 59.8212 19.4791C60.8311 20.4868 62.2046 21.0109 63.9215 21.0109C65.7192 21.0109 67.1533 20.4667 68.1834 19.3783C69.2338 18.2899 69.7387 16.8388 69.7387 15.045C69.7387 13.2713 69.254 11.8605 68.2642 10.8326C67.3149 9.80465 65.9212 9.30078 64.1841 9.30078ZM66.2848 17.8868C65.8 18.5116 65.0324 18.814 64.0831 18.814C63.1338 18.814 62.3662 18.5116 61.8209 17.8465C61.2755 17.2217 61.0129 16.3147 61.0129 15.1659C61.0129 13.9767 61.2957 13.0698 61.8209 12.4248C62.3662 11.7798 63.1136 11.4574 64.0629 11.4574C64.992 11.4574 65.7192 11.7597 66.2444 12.3845C66.7695 13.0093 67.0523 13.9163 67.0523 15.1054C67.0119 16.3147 66.7897 17.262 66.2848 17.8868ZM75.5964 14.1783C74.7682 13.8357 74.243 13.5736 74.0007 13.3519C73.7987 13.1504 73.6977 12.8682 73.6977 12.5054C73.6977 12.2031 73.8189 11.9008 74.1218 11.6992C74.4248 11.4977 74.7682 11.3969 75.2732 11.3969C75.7175 11.3969 76.1821 11.4775 76.6265 11.5984C77.0709 11.7194 77.4748 11.9008 77.798 12.1426L77.899 12.2233V9.76434L77.8384 9.74419C77.5354 9.62326 77.1314 9.50233 76.6467 9.40155C76.1619 9.32093 75.7175 9.28062 75.354 9.28062C74.1016 9.28062 73.0715 9.58295 72.2636 10.2481C71.4556 10.8729 71.0718 11.7194 71.0718 12.707C71.0718 13.231 71.1526 13.6946 71.3344 14.0775C71.5162 14.4605 71.7788 14.8233 72.1424 15.1256C72.506 15.4078 73.0311 15.7302 73.7583 16.0326C74.3642 16.2946 74.8288 16.4961 75.1116 16.6574C75.3944 16.8186 75.5761 17 75.7175 17.1411C75.8185 17.3023 75.8791 17.5039 75.8791 17.7659C75.8791 18.5116 75.3136 18.8744 74.1622 18.8744C73.7179 18.8744 73.2533 18.7938 72.7079 18.6124C72.1626 18.431 71.6576 18.169 71.2334 17.8667L71.1324 17.786V20.3457L71.193 20.3659C71.5768 20.5473 72.0414 20.6682 72.6069 20.8093C73.1725 20.9101 73.6775 20.9907 74.1218 20.9907C75.4752 20.9907 76.5861 20.6884 77.3738 20.0233C78.1818 19.3783 78.606 18.5519 78.606 17.4837C78.606 16.738 78.404 16.0729 77.9596 15.569C77.3738 15.0853 76.6467 14.5814 75.5964 14.1783ZM85.5341 9.30078C83.696 9.30078 82.2215 9.84496 81.1914 10.9132C80.1612 11.9814 79.6361 13.4527 79.6361 15.307C79.6361 17.0403 80.1612 18.4512 81.1712 19.4791C82.1811 20.4868 83.5546 21.0109 85.2715 21.0109C87.0692 21.0109 88.5033 20.4667 89.5334 19.3783C90.5838 18.2899 91.0887 16.8388 91.0887 15.045C91.0887 13.2713 90.604 11.8605 89.6142 10.8326C88.6649 9.80465 87.2712 9.30078 85.5341 9.30078ZM87.6146 17.8868C87.1298 18.5116 86.3622 18.814 85.4129 18.814C84.4434 18.814 83.696 18.5116 83.1507 17.8465C82.6053 17.2217 82.3427 16.3147 82.3427 15.1659C82.3427 13.9767 82.6255 13.0698 83.1507 12.4248C83.696 11.7798 84.4434 11.4574 85.3927 11.4574C86.3017 11.4574 87.049 11.7597 87.5742 12.3845C88.0993 13.0093 88.3821 13.9163 88.3821 15.1054C88.3821 16.3147 88.1195 17.262 87.6146 17.8868ZM105.127 11.6992V9.54264H102.481V6.23721L102.4 6.25736L99.8954 7.0031L99.8348 7.02326V9.54264H95.8758V8.13178C95.8758 7.48682 96.0374 6.98295 96.3202 6.66047C96.603 6.33798 97.0271 6.17674 97.5523 6.17674C97.9159 6.17674 98.2997 6.25736 98.7238 6.43876L98.8248 6.49922V4.22171L98.7642 4.20155C98.4007 4.08062 97.9159 4 97.2897 4C96.502 4 95.8152 4.1814 95.1891 4.48372C94.5629 4.82636 94.0983 5.28992 93.755 5.91473C93.4116 6.51938 93.2298 7.20465 93.2298 7.9907V9.54264H91.3917V11.6791H93.2298V20.7085H95.8758V11.6992H99.8348V17.4434C99.8348 19.8016 100.946 20.9907 103.168 20.9907C103.531 20.9907 103.915 20.9302 104.278 20.8698C104.662 20.7891 104.945 20.6884 105.107 20.6078L105.127 20.5876V18.431L105.026 18.5116C104.864 18.6124 104.723 18.693 104.48 18.7535C104.278 18.814 104.097 18.8341 103.955 18.8341C103.43 18.8341 103.067 18.7132 102.804 18.4109C102.562 18.1287 102.44 17.6651 102.44 16.9798V11.6992H105.127Z" fill="white"/>
</svg>
