<svg width="54" height="41" viewBox="0 0 54 41" fill="none" xmlns="http://www.w3.org/2000/svg">
<path d="M12.0398 40.048C8.48775 40.048 5.60775 38.8 3.39975 36.304C1.28775 33.712 0.23175 30.352 0.23175 26.224C0.23175 20.848 1.81575 15.856 4.98375 11.248C8.15175 6.544 12.0878 3.04 16.7918 0.735999L17.6558 2.46399C15.6398 4 13.8638 5.968 12.3278 8.368C10.7918 10.768 9.68775 13.744 9.01575 17.296L12.0398 18.016C15.3998 18.784 17.9918 20.224 19.8158 22.336C21.7358 24.352 22.6958 26.8 22.6958 29.68C22.6958 32.752 21.6398 35.248 19.5278 37.168C17.5118 39.088 15.0158 40.048 12.0398 40.048ZM42.4238 40.048C38.8718 40.048 35.9918 38.8 33.7838 36.304C31.6718 33.712 30.6158 30.352 30.6158 26.224C30.6158 20.848 32.1998 15.856 35.3678 11.248C38.5358 6.544 42.4718 3.04 47.1758 0.735999L48.0398 2.46399C46.0238 4 44.2478 5.968 42.7118 8.368C41.1758 10.768 40.0718 13.744 39.3998 17.296L42.4238 18.016C45.7838 18.784 48.3758 20.224 50.1998 22.336C52.1198 24.352 53.0798 26.8 53.0798 29.68C53.0798 32.752 52.0238 35.248 49.9118 37.168C47.8958 39.088 45.3998 40.048 42.4238 40.048Z" fill="#131313"/>
</svg>
