<svg width="112" height="26" viewBox="0 0 112 26" fill="none" xmlns="http://www.w3.org/2000/svg">
<g clip-path="url(#clip0_174_481)">
<path d="M40.0019 9.24778V10.7213H40.047C40.5772 9.93235 41.4574 9.00328 43.4084 9.00328C44.9262 9.00328 46.0906 9.77588 46.5896 10.9429H46.6347C47.0609 10.3529 47.5495 9.90628 48.097 9.59006C48.7451 9.21518 49.4659 9.00002 50.3738 9.00002C52.4288 9.00002 54.2481 10.3366 54.2481 13.7073V20.1H51.1154V14.1539C51.1154 12.4457 50.4986 11.458 49.2164 11.458C48.2773 11.458 47.5946 12.0513 47.3347 12.7815C47.2446 13.0325 47.203 13.3748 47.203 13.6617V20.1033H44.0703V13.9127C44.0703 12.462 43.4777 11.4547 42.2128 11.4547C41.2009 11.4547 40.5668 12.2045 40.3069 12.8467C40.196 13.1205 40.1613 13.4368 40.1613 13.7334V20.1H37.0251V9.24778H40.0019ZM70.4176 9.24778V11.295H70.5042C71.0795 9.73024 72.4448 9.00328 73.6439 9.00328C73.9454 9.00328 74.1117 9.0261 74.3543 9.07174V11.9144C74.0666 11.8753 73.7998 11.8361 73.4255 11.8361C72.0671 11.8361 71.1211 12.5794 70.882 13.7432C70.83 13.9844 70.8126 14.2452 70.8126 14.5451V20.1033H67.5968V9.24778H70.4176ZM78.7206 5.6521V9.06848H81.4375V11.8329H78.7206V15.911C78.7206 17.2313 79.0776 17.8702 80.138 17.8702C80.637 17.8702 81.0043 17.8115 81.3231 17.7366L81.3647 20.0283C80.9385 20.1782 80.0306 20.3412 79.1088 20.3412C78.0241 20.3412 77.1196 19.9859 76.5686 19.435C75.938 18.8058 75.6469 17.7757 75.6469 16.3087V5.6521H78.7206ZM34.842 20.1H31.7231V5.6521H34.842V20.1ZM26.525 16.224C26.525 16.4228 26.5077 16.6315 26.4488 16.8108C26.2062 17.5638 25.378 18.1995 24.3453 18.1995C23.4824 18.1995 22.7963 17.7398 22.7963 16.7651C22.7963 15.2753 24.5428 14.8613 26.5285 14.8711V16.224H26.525ZM29.6404 13.6258C29.6404 11.1646 28.5246 9.00328 24.7508 9.00328C22.8136 9.00328 21.275 9.51509 20.4364 9.97147L21.0497 11.947C21.8156 11.4906 23.0389 11.1157 24.1963 11.1157C26.1127 11.1124 26.4245 12.1361 26.4245 12.7913V12.9478C22.2487 12.9412 19.6116 14.3006 19.6116 17.0715C19.6116 18.7634 20.9527 20.3478 23.2884 20.3478C24.7265 20.3478 25.9255 19.8099 26.6463 18.946H26.7156C26.7156 18.946 27.1939 20.8204 29.8206 20.1033C29.682 19.3209 29.6369 18.4896 29.6369 17.4888V13.6258H29.6404ZM3.94459 5.6521C4.26687 7.181 5.18173 11.621 5.18173 11.621C5.56639 13.4465 5.91986 15.3601 6.1867 16.8727H6.23521C6.49511 15.2656 6.90403 13.7432 7.34067 11.859L8.88276 5.6521H12.2962L13.7378 12.0187C14.1155 13.7888 14.417 15.1547 14.6561 16.801H14.7011C14.961 15.1384 15.3007 13.7171 15.6715 11.8981L17.0576 5.6521H20.3324L16.2744 20.1C13.6893 20.6314 12.6982 19.6534 12.3447 18.1017C11.9912 16.5467 11.2981 13.59 11.2981 13.59C10.9412 11.9698 10.664 10.8288 10.4699 9.16628H10.4214C10.1442 10.8125 9.85307 11.9665 9.42336 13.5867L7.72186 20.1033C5.08124 20.5988 4.16638 19.8653 3.66043 17.8735C3.22379 16.1686 0.5 5.65536 0.5 5.65536H3.94459V5.6521ZM62.3987 16.224C62.3987 16.4228 62.3814 16.6315 62.3224 16.8108C62.0799 17.5638 61.2516 18.1995 60.219 18.1995C59.3561 18.1995 58.6699 17.7398 58.6699 16.7651C58.6699 15.2753 60.4165 14.8613 62.4022 14.8711V16.224H62.3987ZM65.5141 13.6258C65.5141 11.1646 64.3982 9.00328 60.6244 9.00328C58.6873 9.00328 57.1486 9.51509 56.31 9.97147L56.9234 11.947C57.6892 11.4906 58.9125 11.1157 60.07 11.1157C61.9828 11.1124 62.2982 12.1361 62.2982 12.7913V12.9478C58.1259 12.9412 55.4887 14.3006 55.4887 17.0715C55.4887 18.7634 56.8333 20.3478 59.1655 20.3478C60.6002 20.3478 61.8026 19.8099 62.52 18.946H62.5928C62.5928 18.946 63.071 20.8204 65.6977 20.1033C65.5591 19.3209 65.5141 18.4896 65.5141 17.4888V13.6258Z" fill="white"/>
</g>
<defs>
<clipPath id="clip0_174_481">
<rect width="111" height="26" fill="white" transform="translate(0.5)"/>
</clipPath>
</defs>
</svg>
